<mxfile host="app.diagrams.net" modified="2024-03-31T05:42:57.119Z" agent="Mozilla/5.0 (Windows NT 10.0; Win64; x64) AppleWebKit/537.36 (KHTML, like Gecko) Chrome/123.0.0.0 Safari/537.36 Edg/123.0.0.0" etag="uD5MYkuc-2htGZUXSuLi" version="24.2.1" type="device">
  <diagram name="Page-1" id="SFIL8JcXuw7Fibyfm9k1">
    <mxGraphModel dx="1426" dy="785" grid="1" gridSize="10" guides="1" tooltips="1" connect="1" arrows="1" fold="1" page="1" pageScale="1" pageWidth="850" pageHeight="1100" math="0" shadow="0">
      <root>
        <mxCell id="0" />
        <mxCell id="1" parent="0" />
        <mxCell id="WlvJJ3Fmd9fKB_0aovkG-1" value="&lt;b&gt;sd&lt;/b&gt; submit_comments" style="shape=umlFrame;whiteSpace=wrap;html=1;pointerEvents=0;width=160;height=30;" vertex="1" parent="1">
          <mxGeometry x="90" y="140" width="1000" height="620" as="geometry" />
        </mxCell>
        <mxCell id="WlvJJ3Fmd9fKB_0aovkG-2" value="&amp;lt;&amp;lt;javascript&amp;gt;&amp;gt;&lt;div&gt;:Comments&lt;/div&gt;" style="shape=umlLifeline;perimeter=lifelinePerimeter;whiteSpace=wrap;html=1;container=1;dropTarget=0;collapsible=0;recursiveResize=0;outlineConnect=0;portConstraint=eastwest;newEdgeStyle={&quot;curved&quot;:0,&quot;rounded&quot;:0};" vertex="1" parent="1">
          <mxGeometry x="480" y="210" width="100" height="490" as="geometry" />
        </mxCell>
        <mxCell id="WlvJJ3Fmd9fKB_0aovkG-7" value="" style="html=1;points=[[0,0,0,0,5],[0,1,0,0,-5],[1,0,0,0,5],[1,1,0,0,-5]];perimeter=orthogonalPerimeter;outlineConnect=0;targetShapes=umlLifeline;portConstraint=eastwest;newEdgeStyle={&quot;curved&quot;:0,&quot;rounded&quot;:0};" vertex="1" parent="WlvJJ3Fmd9fKB_0aovkG-2">
          <mxGeometry x="45" y="90" width="10" height="100" as="geometry" />
        </mxCell>
        <mxCell id="WlvJJ3Fmd9fKB_0aovkG-3" value=":window" style="shape=umlLifeline;perimeter=lifelinePerimeter;whiteSpace=wrap;html=1;container=1;dropTarget=0;collapsible=0;recursiveResize=0;outlineConnect=0;portConstraint=eastwest;newEdgeStyle={&quot;curved&quot;:0,&quot;rounded&quot;:0};" vertex="1" parent="1">
          <mxGeometry x="230" y="210" width="100" height="490" as="geometry" />
        </mxCell>
        <mxCell id="WlvJJ3Fmd9fKB_0aovkG-4" value="" style="html=1;points=[[0,0,0,0,5],[0,1,0,0,-5],[1,0,0,0,5],[1,1,0,0,-5]];perimeter=orthogonalPerimeter;outlineConnect=0;targetShapes=umlLifeline;portConstraint=eastwest;newEdgeStyle={&quot;curved&quot;:0,&quot;rounded&quot;:0};" vertex="1" parent="WlvJJ3Fmd9fKB_0aovkG-3">
          <mxGeometry x="45" y="70" width="10" height="150" as="geometry" />
        </mxCell>
        <mxCell id="WlvJJ3Fmd9fKB_0aovkG-17" value="" style="html=1;points=[[0,0,0,0,5],[0,1,0,0,-5],[1,0,0,0,5],[1,1,0,0,-5]];perimeter=orthogonalPerimeter;outlineConnect=0;targetShapes=umlLifeline;portConstraint=eastwest;newEdgeStyle={&quot;curved&quot;:0,&quot;rounded&quot;:0};" vertex="1" parent="WlvJJ3Fmd9fKB_0aovkG-3">
          <mxGeometry x="45" y="270" width="10" height="90" as="geometry" />
        </mxCell>
        <mxCell id="WlvJJ3Fmd9fKB_0aovkG-5" value="validate()" style="html=1;verticalAlign=bottom;endArrow=block;curved=0;rounded=0;exitX=-0.002;exitY=0.237;exitDx=0;exitDy=0;exitPerimeter=0;entryX=0;entryY=0;entryDx=0;entryDy=5;entryPerimeter=0;" edge="1" target="WlvJJ3Fmd9fKB_0aovkG-4" parent="1" source="WlvJJ3Fmd9fKB_0aovkG-1">
          <mxGeometry x="0.0053" relative="1" as="geometry">
            <mxPoint x="210" y="305" as="sourcePoint" />
            <mxPoint x="270" y="287" as="targetPoint" />
            <mxPoint as="offset" />
          </mxGeometry>
        </mxCell>
        <mxCell id="WlvJJ3Fmd9fKB_0aovkG-6" value="" style="html=1;verticalAlign=bottom;endArrow=open;dashed=1;endSize=8;curved=0;rounded=0;exitX=0;exitY=1;exitDx=0;exitDy=-5;" edge="1" source="WlvJJ3Fmd9fKB_0aovkG-4" parent="1">
          <mxGeometry relative="1" as="geometry">
            <mxPoint x="90" y="425" as="targetPoint" />
          </mxGeometry>
        </mxCell>
        <mxCell id="WlvJJ3Fmd9fKB_0aovkG-8" value="validate()" style="html=1;verticalAlign=bottom;endArrow=block;curved=0;rounded=0;entryX=0;entryY=0;entryDx=0;entryDy=5;" edge="1" target="WlvJJ3Fmd9fKB_0aovkG-7" parent="1" source="WlvJJ3Fmd9fKB_0aovkG-4">
          <mxGeometry relative="1" as="geometry">
            <mxPoint x="290" y="305" as="sourcePoint" />
          </mxGeometry>
        </mxCell>
        <mxCell id="WlvJJ3Fmd9fKB_0aovkG-9" value="" style="html=1;verticalAlign=bottom;endArrow=open;dashed=1;endSize=8;curved=0;rounded=0;exitX=0;exitY=1;exitDx=0;exitDy=-5;" edge="1" source="WlvJJ3Fmd9fKB_0aovkG-7" parent="1" target="WlvJJ3Fmd9fKB_0aovkG-4">
          <mxGeometry relative="1" as="geometry">
            <mxPoint x="450" y="365" as="targetPoint" />
          </mxGeometry>
        </mxCell>
        <mxCell id="WlvJJ3Fmd9fKB_0aovkG-11" value="&amp;lt;&amp;lt;crate&amp;gt;&amp;gt;" style="endArrow=open;endSize=12;dashed=1;html=1;rounded=0;entryX=0;entryY=0.05;entryDx=0;entryDy=0;entryPerimeter=0;" edge="1" parent="1" source="WlvJJ3Fmd9fKB_0aovkG-7" target="WlvJJ3Fmd9fKB_0aovkG-12">
          <mxGeometry width="160" relative="1" as="geometry">
            <mxPoint x="540" y="440" as="sourcePoint" />
            <mxPoint x="680" y="315" as="targetPoint" />
          </mxGeometry>
        </mxCell>
        <mxCell id="WlvJJ3Fmd9fKB_0aovkG-12" value="&amp;lt;ajax&amp;gt;&amp;gt;&lt;div&gt;:Proxy&lt;/div&gt;" style="shape=umlLifeline;perimeter=lifelinePerimeter;whiteSpace=wrap;html=1;container=1;dropTarget=0;collapsible=0;recursiveResize=0;outlineConnect=0;portConstraint=eastwest;newEdgeStyle={&quot;curved&quot;:0,&quot;rounded&quot;:0};" vertex="1" parent="1">
          <mxGeometry x="680" y="300" width="100" height="300" as="geometry" />
        </mxCell>
        <mxCell id="WlvJJ3Fmd9fKB_0aovkG-13" value="" style="html=1;points=[[0,0,0,0,5],[0,1,0,0,-5],[1,0,0,0,5],[1,1,0,0,-5]];perimeter=orthogonalPerimeter;outlineConnect=0;targetShapes=umlLifeline;portConstraint=eastwest;newEdgeStyle={&quot;curved&quot;:0,&quot;rounded&quot;:0};" vertex="1" parent="WlvJJ3Fmd9fKB_0aovkG-12">
          <mxGeometry x="45" y="80" width="10" height="110" as="geometry" />
        </mxCell>
        <mxCell id="WlvJJ3Fmd9fKB_0aovkG-14" value="&amp;lt;&amp;lt;ajax&amp;gt;&amp;gt;" style="html=1;verticalAlign=bottom;endArrow=block;curved=0;rounded=0;entryX=0;entryY=0;entryDx=0;entryDy=5;" edge="1" target="WlvJJ3Fmd9fKB_0aovkG-13" parent="1" source="WlvJJ3Fmd9fKB_0aovkG-7">
          <mxGeometry relative="1" as="geometry">
            <mxPoint x="540" y="385" as="sourcePoint" />
          </mxGeometry>
        </mxCell>
        <mxCell id="WlvJJ3Fmd9fKB_0aovkG-15" value="&amp;lt;&amp;lt;callback&amp;gt;&amp;gt;" style="html=1;verticalAlign=bottom;endArrow=open;dashed=1;endSize=8;curved=0;rounded=0;exitX=0;exitY=1;exitDx=0;exitDy=-5;" edge="1" parent="1">
          <mxGeometry x="-0.3486" relative="1" as="geometry">
            <mxPoint x="280.30769230769226" y="480" as="targetPoint" />
            <mxPoint x="725" y="480" as="sourcePoint" />
            <mxPoint as="offset" />
          </mxGeometry>
        </mxCell>
        <mxCell id="WlvJJ3Fmd9fKB_0aovkG-16" value="" style="html=1;verticalAlign=bottom;endArrow=open;dashed=1;endSize=8;curved=0;rounded=0;entryX=0;entryY=0.644;entryDx=0;entryDy=0;entryPerimeter=0;" edge="1" parent="1" source="WlvJJ3Fmd9fKB_0aovkG-17">
          <mxGeometry relative="1" as="geometry">
            <mxPoint x="270" y="560" as="sourcePoint" />
            <mxPoint x="90" y="560" as="targetPoint" />
          </mxGeometry>
        </mxCell>
        <mxCell id="WlvJJ3Fmd9fKB_0aovkG-19" value="&lt;b&gt;ref&lt;/b&gt;" style="shape=umlFrame;whiteSpace=wrap;html=1;pointerEvents=0;recursiveResize=0;container=1;collapsible=0;width=50;height=20;shadow=0;overflow=visible;fillOpacity=100;strokeOpacity=100;backgroundOutline=0;" vertex="1" parent="1">
          <mxGeometry x="250" y="500" width="310" height="50" as="geometry" />
        </mxCell>
        <mxCell id="WlvJJ3Fmd9fKB_0aovkG-20" value="Handle Errors" style="text;align=center;html=1;" vertex="1" parent="WlvJJ3Fmd9fKB_0aovkG-19">
          <mxGeometry width="100" height="20" relative="1" as="geometry">
            <mxPoint x="105" y="15" as="offset" />
          </mxGeometry>
        </mxCell>
        <mxCell id="WlvJJ3Fmd9fKB_0aovkG-26" value="" style="shape=umlLifeline;perimeter=lifelinePerimeter;whiteSpace=wrap;html=1;container=1;dropTarget=0;collapsible=0;recursiveResize=0;outlineConnect=0;portConstraint=eastwest;newEdgeStyle={&quot;curved&quot;:0,&quot;rounded&quot;:0};participant=umlBoundary;" vertex="1" parent="1">
          <mxGeometry x="870" y="210" width="50" height="410" as="geometry" />
        </mxCell>
        <mxCell id="WlvJJ3Fmd9fKB_0aovkG-27" value="" style="html=1;points=[[0,0,0,0,5],[0,1,0,0,-5],[1,0,0,0,5],[1,1,0,0,-5]];perimeter=orthogonalPerimeter;outlineConnect=0;targetShapes=umlLifeline;portConstraint=eastwest;newEdgeStyle={&quot;curved&quot;:0,&quot;rounded&quot;:0};" vertex="1" parent="WlvJJ3Fmd9fKB_0aovkG-26">
          <mxGeometry x="20" y="180" width="10" height="80" as="geometry" />
        </mxCell>
        <mxCell id="WlvJJ3Fmd9fKB_0aovkG-30" value="" style="shape=umlDestroy;whiteSpace=wrap;html=1;strokeWidth=3;targetShapes=umlLifeline;" vertex="1" parent="WlvJJ3Fmd9fKB_0aovkG-26">
          <mxGeometry x="10" y="380" width="30" height="30" as="geometry" />
        </mxCell>
        <mxCell id="WlvJJ3Fmd9fKB_0aovkG-28" value="&amp;lt;&amp;lt;ajax&amp;gt;&amp;gt;" style="html=1;verticalAlign=bottom;endArrow=block;curved=0;rounded=0;entryX=0;entryY=0;entryDx=0;entryDy=5;" edge="1" target="WlvJJ3Fmd9fKB_0aovkG-27" parent="1" source="WlvJJ3Fmd9fKB_0aovkG-13">
          <mxGeometry relative="1" as="geometry">
            <mxPoint x="820" y="395" as="sourcePoint" />
          </mxGeometry>
        </mxCell>
        <mxCell id="WlvJJ3Fmd9fKB_0aovkG-29" value="errors" style="html=1;verticalAlign=bottom;endArrow=open;dashed=1;endSize=8;curved=0;rounded=0;exitX=0;exitY=1;exitDx=0;exitDy=-5;" edge="1" source="WlvJJ3Fmd9fKB_0aovkG-27" parent="1" target="WlvJJ3Fmd9fKB_0aovkG-13">
          <mxGeometry relative="1" as="geometry">
            <mxPoint x="820" y="465" as="targetPoint" />
          </mxGeometry>
        </mxCell>
        <mxCell id="WlvJJ3Fmd9fKB_0aovkG-31" value="&amp;lt;&amp;lt;servlet&amp;gt;&amp;gt;&lt;div&gt;:DWRServlet&lt;/div&gt;" style="text;html=1;align=center;verticalAlign=middle;resizable=0;points=[];autosize=1;strokeColor=none;fillColor=none;" vertex="1" parent="1">
          <mxGeometry x="850" y="170" width="90" height="40" as="geometry" />
        </mxCell>
        <mxCell id="WlvJJ3Fmd9fKB_0aovkG-32" value="" style="endArrow=classic;startArrow=classic;html=1;rounded=0;" edge="1" parent="1">
          <mxGeometry width="50" height="50" relative="1" as="geometry">
            <mxPoint x="260" y="480" as="sourcePoint" />
            <mxPoint x="260" y="425" as="targetPoint" />
          </mxGeometry>
        </mxCell>
        <mxCell id="WlvJJ3Fmd9fKB_0aovkG-33" value="{10.200ms}" style="text;html=1;align=center;verticalAlign=middle;resizable=0;points=[];autosize=1;strokeColor=none;fillColor=none;" vertex="1" parent="1">
          <mxGeometry x="180" y="440" width="80" height="30" as="geometry" />
        </mxCell>
      </root>
    </mxGraphModel>
  </diagram>
</mxfile>
